<?xml version="1.0" standalone="no"?>
<!DOCTYPE svg PUBLIC "-//W3C//DTD SVG 20010904//EN"
 "http://www.w3.org/TR/2001/REC-SVG-20010904/DTD/svg10.dtd">
<svg version="1.0" xmlns="http://www.w3.org/2000/svg"
 width="700.000000pt" height="700.000000pt" viewBox="0 0 700.000000 700.000000"
 preserveAspectRatio="xMidYMid meet">
<metadata>
Created by potrace 1.11, written by Peter Selinger 2001-2013
</metadata>
<g transform="translate(0.000000,700.000000) scale(0.100000,-0.100000)"
fill="#000000" stroke="none">
<path d="M3298 6995 c-2 -1 -41 -5 -88 -9 -100 -7 -225 -22 -295 -36 -27 -5
-61 -12 -75 -14 -431 -79 -908 -273 -1275 -519 -69 -46 -297 -217 -305 -228
-3 -3 -25 -23 -50 -44 -85 -70 -220 -205 -361 -361 -210 -232 -452 -626 -585
-952 -62 -151 -146 -411 -169 -520 -2 -9 -8 -37 -14 -62 -11 -49 -13 -63 -35
-195 -34 -204 -40 -302 -40 -570 0 -233 11 -378 39 -545 6 -32 24 -129 29
-155 48 -244 156 -561 273 -802 448 -928 1280 -1612 2270 -1868 72 -19 142
-36 155 -39 13 -2 50 -9 83 -15 33 -6 71 -13 85 -16 14 -3 52 -8 85 -11 33 -3
63 -8 66 -9 15 -10 227 -20 409 -20 188 0 341 8 430 21 144 21 295 48 345 61
33 8 67 16 75 18 109 22 388 117 549 187 121 53 308 148 353 179 14 11 29 19
33 19 24 0 383 257 495 355 119 104 294 279 365 365 21 25 41 47 44 50 4 3 45
55 91 115 332 436 547 915 654 1456 14 70 28 155 32 190 3 35 8 67 10 70 9 17
19 214 18 399 0 188 -6 331 -19 420 -3 19 -7 56 -10 81 -3 25 -7 54 -9 65 -2
10 -11 60 -21 109 -85 456 -276 915 -543 1305 -56 82 -194 265 -211 280 -3 3
-35 38 -70 78 -479 547 -1164 944 -1888 1096 -98 21 -244 44 -393 61 -55 7
-526 16 -532 10z m-1546 -3791 c55 -28 89 -85 134 -221 87 -270 221 -490 415
-683 273 -271 584 -425 985 -487 63 -9 341 -10 419 0 321 39 649 182 885 385
255 220 421 470 526 789 47 143 74 186 135 218 56 29 153 20 206 -21 84 -63
96 -146 46 -304 -110 -344 -270 -607 -523 -861 -291 -291 -608 -468 -1010
-563 -173 -41 -263 -50 -470 -50 -162 0 -217 4 -346 24 -280 45 -584 166 -824
329 -129 87 -185 135 -320 270 -243 245 -410 522 -510 846 -38 124 -43 158
-28 207 34 115 173 175 280 122z"/>
</g>
</svg>
